# xmcd CD database file
# Copyright (C) 1993-1996 Ti Kan
#
# Track frame offsets:
#	150
#	29237
#	60152
#	84450
#	111090
#	140455
#	150450
#	163360
#	179865
#	194210
#	208962
#	232448
#	243627
#	265853
#	286517
#
# Disc length: 4111 seconds
#
# Revision: 1
# Processed by: cddbd v1.4b41PL1 Copyright (c) Steve Scherf et al.
# Submitted via: CDValet v3.01 - Copyright (c) 1997 Greg Leichner
#
DISCID=ec100d0f
DTITLE=Assorted Artists - Heavy Harp   (1994)
DYEAR=1900
DGENRE=
TTITLE0=Billy Branch - Don't Start Me Talking
TTITLE1=Billy Branch - Help Me
TTITLE2=Metro Blues All Stars - Bad Situation
TTITLE3=Metro Blues All Stars - Holly Roller
TTITLE4=Sam Myers - My Daily Wish
TTITLE5=Sam Myers - Sam's Jam
TTITLE6=Mudcat Blues Band -Shoulda Been Ashamed
TTITLE7=Mudcat Blues Band - Barney Cool
TTITLE8=Blue Lou - Black Hearted Woman
TTITLE9=MR2 Blue - In Your Face
TTITLE10=Lefty Dizz - Strange Things
TTITLE11=Lamont Gillispie - In Orbit
TTITLE12=Lamont Gillispie - Checking on My Baby
TTITLE13=Big Al and the Heavyweights - Helena, Ark
TTITLE14=Burgoard and Rosen - Another City Day
EXTD=
EXTT0=
EXTT1=
EXTT2=
EXTT3=
EXTT4=
EXTT5=
EXTT6=
EXTT7=
EXTT8=
EXTT9=
EXTT10=
EXTT11=
EXTT12=
EXTT13=
EXTT14=
PLAYORDER=
